<?xml version="1.0" encoding="UTF-8"?>
<svg fill='fff' width="24px" height="23px" viewBox="0 0 24 23" version="1.1" xmlns="http://www.w3.org/2000/svg" xmlns:xlink="http://www.w3.org/1999/xlink">
    <!-- Generator: Sketch 64 (93537) - https://sketch.com -->
    <title>iconmonstr-info-6</title>
    <desc>Created with Sketch.</desc>
    <g id="Page-1" stroke="none" stroke-width="1" fill="none" fill-rule="evenodd">
        <g id="Tan-Desktop" transform="translate(-1321.000000, -125.000000)" fill="#ffffff" fill-rule="nonzero">
            <g id="INDEX-CARD" transform="translate(674.000000, 115.000000)">
                <g id="iconmonstr-info-6" transform="translate(647.000000, 10.000000)">
                    <path d="M12,1.91666667 C17.514,1.91666667 22,6.21575 22,11.5 C22,16.78425 17.514,21.0833333 12,21.0833333 C6.486,21.0833333 2,16.78425 2,11.5 C2,6.21575 6.486,1.91666667 12,1.91666667 Z M12,0 C5.373,0 0,5.149125 0,11.5 C0,17.850875 5.373,23 12,23 C18.627,23 24,17.850875 24,11.5 C24,5.149125 18.627,0 12,0 Z M11.999,5.51041667 C12.689,5.51041667 13.25,6.04708333 13.25,6.70833333 C13.25,7.36958333 12.689,7.90625 11.999,7.90625 C11.309,7.90625 10.75,7.36958333 10.75,6.70833333 C10.75,6.04708333 11.309,5.51041667 11.999,5.51041667 Z M14,17.25 L10,17.25 L10,16.2916667 C10.484,16.120125 11,16.0990417 11,15.5872917 L11,11.3064167 C11,10.7946667 10.484,10.7141667 10,10.542625 L10,9.58429167 L13,9.58429167 L13,15.58825 C13,16.1009583 13.517,16.123 14,16.292625 L14,17.25 Z" id="Shape"></path>
                </g>
            </g>
        </g>
    </g>
</svg>
